<svg width="512" height="512" xmlns="http://www.w3.org/2000/svg">
 <title>AutoHotkey nekoHelp logo</title>

 <g>
  <title>AutoHotkey nekoHelp logo</title>
  <rect id="svg_bg" height="500" width="500" y="6" x="6" fill="#2d323b" rx="250"/>
  <text transform="matrix(0.919444, 0, 0, 0.919444, 5.39722, 1.53056)" text-anchor="middle" fill="#b09df5" x="250" y="234" id="svg_ahk" font-size="200" font-family="'Fira Code'">AHK</text>
  <path fill="#ded5ff" stroke="null" d="m146.82478,301.48988c1.36039,-0.27199 11.24124,10.8226 11.4276,13.05825c0.27208,3.26452 6.53009,3.26452 8.16256,3.26452c1.63256,0 13.33224,7.07319 21.22272,14.69054c7.89057,7.61726 31.01785,0.54407 32.65032,0c1.63256,-0.54417 76.18419,-14.96255 96.3185,-4.89683c9.66996,4.83423 28.73035,-12.24515 31.22194,-47.74415c-1.02033,-23.66795 -22.30765,-24.5562 -26.73248,-17.34291c-3.26504,3.19653 -8.84281,2.24437 -7.48231,-3.60459c1.23707,-3.91675 9.52296,-15.98268 24.82784,-10.67778c12.97489,4.49731 20.47956,15.31423 23.26337,31.21722c1.83655,34.27783 -23.8756,59.57808 -23.8756,59.57808c0,0 2.04064,8.97758 4.8976,14.69054c2.85688,5.71296 3.6731,25.30026 3.26496,27.74863c-0.40807,2.44846 12.24393,15.91479 16.3252,16.32278c3.53713,1.6323 13.46833,31.82947 13.87641,38.35849c3.67321,1.8363 -0.40807,11.01786 -4.89752,12.2421c-4.48943,1.22422 -5.71385,-7.34527 -5.71385,-11.42594c0,-4.08067 -4.48943,-23.25996 -17.14145,-25.30026c-12.65201,-2.04037 -23.67143,-8.97758 -23.67143,-8.97758c0,0 -0.81633,4.08075 -2.44881,5.71306c0,0 4.08127,6.93711 4.08127,17.13883c-0.40807,4.48874 -6.93817,18.36314 -11.4276,19.58737c0,0 -7.34631,11.42594 -10.61137,11.42594c-3.26504,0 -8.97889,4.08067 -17.95769,-0.81616c0,0 1.63249,-10.20172 9.79513,-7.34527c0,0 19.18208,-14.69046 9.79505,-21.21958c0,0 -5.71376,-8.16134 -8.9788,-11.42594c-3.26504,-3.26452 -6.53009,-8.56941 -7.34631,-14.69046c0,0 -27.34464,-1.6323 -34.28289,-3.26459c-6.93817,-1.63221 -19.59016,2.44846 -19.59016,4.89683c0,2.44846 2.04064,25.70841 5.71376,30.19717c0,0 1.22439,5.71296 0,7.34527c-1.22439,1.63221 4.48943,15.09854 -6.53009,13.87431c-10.40728,1.8363 -15.50887,-6.32504 -3.26496,-8.97748c0.61216,-8.77349 -15.50898,-45.90777 -26.12033,-40.80695c-13.87641,2.04037 -9.18289,-9.99763 -22.85521,8.97758c-14.28457,16.73075 -38.77234,28.56477 -39.99665,35.91004c0,0 -7.34631,-1.6323 -8.97889,4.08067c0,0 -19.18208,2.44846 -17.95769,-0.81616c1.22439,-3.26452 2.24472,-9.99763 9.79513,-7.34519c0,0 17.14145,-6.7332 33.46656,-41.62311c0,0 -2.04064,-8.97748 0.81624,-16.32278c2.85697,-7.34519 -1.63249,-37.54236 -22.03896,-35.91004c0,0 -7.6184,2.72045 -12.24383,-9.79364c0,0 -1.90464,-2.44846 0,-4.89683c1.90456,-2.44846 6.53009,-6.25706 7.34631,-8.97748c0.81624,-2.72053 2.72088,-6.8012 13.06008,-10.60989c4.8976,-5.10082 -0.54407,-15.23454 0.81633,-15.50662l0,0.00001z" id="svg_cat_icon"/>
 </g>
</svg>